<svg id="Ebene_1" data-name="Ebene 1" xmlns="http://www.w3.org/2000/svg" viewBox="0 0 261.48 261.21"><defs><style>.cls-1{fill:#e94850;}</style></defs><path class="cls-1" d="M498.77,191.82l8.55.7c5,.41,7.77,3.62,7.42,7.89v.06c-.4,4.85-4.37,7.05-9.07,6.67l-3.49-.29-.52,6.28-4.6-.37Zm7.39,11.23c2.3.19,3.76-1.07,3.91-2.87v-.06c.17-2.06-1.18-3.29-3.48-3.47l-3.56-.3-.52,6.4Z" transform="translate(-364.8 -191.82)"/><path class="cls-1" d="M526.42,195.51l4.12,1.08,3.39,22.73-4.68-1.21-.67-5.05-8.6-2.23-3,4.07-4.56-1.18ZM528,208.7l-1-7.29-4.41,5.89Z" transform="translate(-364.8 -191.82)"/><path class="cls-1" d="M545.18,201.51l8.63,4.21a8.39,8.39,0,0,1,4.57,4.59,6.59,6.59,0,0,1-.49,5.11l0,.05a6.53,6.53,0,0,1-6.9,3.88l1.32,9L547.44,226l-1.1-8-3.26-1.59-3,6-4.15-2Zm3.89,13.24c2,1,3.71.48,4.48-1.11l0-.06c.87-1.78.08-3.3-2-4.29l-4.12-2-2.64,5.42Z" transform="translate(-364.8 -191.82)"/><path class="cls-1" d="M568.31,219.33l-5.15-3.79,2.52-3.43,14,10.3-2.52,3.44L572,222.06l-9.91,13.5-3.72-2.74Z" transform="translate(-364.8 -191.82)"/><path class="cls-1" d="M583.9,226.48l3.34,3.19-14.49,15.19-3.34-3.19Z" transform="translate(-364.8 -191.82)"/><path class="cls-1" d="M583.75,240.73l0,0a10.66,10.66,0,0,1,15.3,1.86,10.84,10.84,0,0,1,2.6,8.5l-4.49-.2a7.77,7.77,0,0,0-1.47-5.69,6.22,6.22,0,0,0-8.9-.72l-.05,0c-2.82,2.23-3.63,6.05-1.4,8.87a7.57,7.57,0,0,0,5.35,2.8l-.5,4.15a10.7,10.7,0,0,1-8.28-4.43A10.59,10.59,0,0,1,583.75,240.73Z" transform="translate(-364.8 -191.82)"/><path class="cls-1" d="M607.09,254.76l2.33,4-18.13,10.6-2.33-4Z" transform="translate(-364.8 -191.82)"/><path class="cls-1" d="M613,265.19l3.31,7.91c1.94,4.62.37,8.56-3.58,10.22l-.06,0c-4.48,1.88-8.26-.63-10.09-5l-1.35-3.24-5.81,2.44-1.79-4.26Zm-6.57,11.73c.89,2.13,2.69,2.84,4.35,2.14l.05,0c1.91-.8,2.38-2.56,1.49-4.69L611,271.06,605,273.54Z" transform="translate(-364.8 -191.82)"/><path class="cls-1" d="M622.46,291.48l.94,4.16-18.64,13.45-1.07-4.71,4.17-2.92-2-8.66-5-.83-1-4.6Zm-11,7.47,6-4.22-7.26-1.22Z" transform="translate(-364.8 -191.82)"/><path class="cls-1" d="M621.39,312.81l-.36-6.38,4.25-.24,1,17.37-4.25.24-.37-6.38-16.71,1-.27-4.62Z" transform="translate(-364.8 -191.82)"/><path class="cls-1" d="M626,329.82l-1.78,15.75-4.09-.47,1.27-11.18-4.24-.48-1.11,9.84-4.08-.46L613.1,333l-4.39-.49-1.28,11.33-4.08-.47,1.8-15.89Z" transform="translate(-364.8 -191.82)"/><path class="cls-1" d="M607.21,390.4l-4.87,7.06c-2.85,4.12-7,4.93-10.54,2.49l0,0c-4-2.76-3.93-7.3-1.25-11.18l2-2.89-5.18-3.58,2.62-3.8Zm-13.42.8c-1.31,1.9-.94,3.79.54,4.82l0,0c1.71,1.18,3.44.62,4.75-1.28l2-2.94-5.28-3.64Z" transform="translate(-364.8 -191.82)"/><path class="cls-1" d="M590.24,412.49l-3,3-21.39-8.39,3.38-3.45,4.71,1.93,6.21-6.33-2-4.67,3.3-3.36ZM578,407.3l6.82,2.78-2.91-6.76Z" transform="translate(-364.8 -191.82)"/><path class="cls-1" d="M575.71,425.79l-7.94,5.4a8.4,8.4,0,0,1-6.26,1.68,6.57,6.57,0,0,1-4.19-3l0-.05a6.51,6.51,0,0,1,.06-7.91l-8.47-3.32,4.47-3,7.5,3,3-2L560.07,411l3.83-2.6Zm-13.43-3.21c-1.86,1.27-2.25,3-1.26,4.45l0,.05c1.11,1.64,2.82,1.71,4.69.44l3.79-2.58-3.39-5Z" transform="translate(-364.8 -191.82)"/><path class="cls-1" d="M548.74,437l5.84-2.6,1.73,3.9-15.91,7.05-1.72-3.89,5.84-2.59-6.79-15.3,4.23-1.88Z" transform="translate(-364.8 -191.82)"/><path class="cls-1" d="M534.79,447l-4.43,1.31-6-20.14,4.43-1.31Z" transform="translate(-364.8 -191.82)"/><path class="cls-1" d="M522.48,439.78v.05a10.69,10.69,0,0,1-9.26,12.34,10.81,10.81,0,0,1-8.66-2l2.42-3.78a7.7,7.7,0,0,0,5.65,1.56c3.5-.51,5.6-3.79,5.08-7.35v-.06c-.53-3.56-3.43-6.17-7-5.65-2.37.35-3.69,1.52-5.1,3.24l-3.34-2.51a10.74,10.74,0,0,1,8-5A10.6,10.6,0,0,1,522.48,439.78Z" transform="translate(-364.8 -191.82)"/><path class="cls-1" d="M498.9,453l-4.62.07-.34-21,4.62-.08Z" transform="translate(-364.8 -191.82)"/><path class="cls-1" d="M486.7,452.92l-8.51-1.06c-5-.62-7.61-3.94-7.08-8.2v-.06c.6-4.82,4.67-6.85,9.34-6.27l3.48.43.78-6.25,4.59.57Zm-6.91-11.53c-2.29-.29-3.8.92-4,2.7v.06c-.26,2.06,1,3.34,3.33,3.62l3.54.44.79-6.37Z" transform="translate(-364.8 -191.82)"/><path class="cls-1" d="M459.22,448.06l-4.07-1.25L452.74,424l4.61,1.42.46,5.06L466.3,433l3.22-4,4.5,1.38Zm-1-13.24.68,7.33,4.66-5.7Z" transform="translate(-364.8 -191.82)"/><path class="cls-1" d="M441.24,436.54l5.72,2.85-1.91,3.81-15.56-7.77,1.9-3.81,5.72,2.85,7.47-15,4.14,2.06Z" transform="translate(-364.8 -191.82)"/><path class="cls-1" d="M424.14,432l-12.75-9.4,2.44-3.31,9.06,6.68,2.52-3.43-8-5.87,2.44-3.31,8,5.88,2.62-3.55L421.3,409l2.44-3.31,12.86,9.49Z" transform="translate(-364.8 -191.82)"/><path class="cls-1" d="M381,385.61l-3.71-7.74c-2.16-4.52-.79-8.53,3.07-10.39l.06,0c4.38-2.1,8.29.21,10.32,4.46l1.52,3.17,5.68-2.73,2,4.17Zm6-12.05c-1-2.08-2.82-2.7-4.45-1.92l0,0c-1.87.9-2.25,2.68-1.25,4.76l1.55,3.22,5.78-2.78Z" transform="translate(-364.8 -191.82)"/><path class="cls-1" d="M370.26,359.88l-1.15-4.11L387,341.4l1.31,4.65-4,3.12,2.4,8.55,5,.57,1.27,4.54Zm10.59-8L375,356.38l7.31.85Z" transform="translate(-364.8 -191.82)"/><path class="cls-1" d="M366,340.61l-.71-9.57a8.35,8.35,0,0,1,1.67-6.27,6.62,6.62,0,0,1,4.65-2.15h.06a6.53,6.53,0,0,1,6.83,4l7.1-5.67.4,5.39-6.37,5,.27,3.62,6.7-.49.35,4.6Zm9.48-10c-.16-2.25-1.46-3.44-3.22-3.31h-.06c-2,.15-2.89,1.6-2.73,3.85l.35,4.57,6-.44Z" transform="translate(-364.8 -191.82)"/><path class="cls-1" d="M369.69,311.69,369,318l-4.24-.43,1.79-17.32,4.23.44-.65,6.36,16.65,1.72-.47,4.6Z" transform="translate(-364.8 -191.82)"/><path class="cls-1" d="M368,294.6l1.07-4.49L389.47,295l-1.06,4.49Z" transform="translate(-364.8 -191.82)"/><path class="cls-1" d="M380.35,287.52l-.05,0a10.66,10.66,0,0,1-6.11-14.15,10.83,10.83,0,0,1,6-6.53l2.08,4a7.77,7.77,0,0,0-4.17,4.13c-1.29,3.3.51,6.74,3.86,8.06l.06,0c3.35,1.31,7.05.09,8.37-3.26a7.59,7.59,0,0,0-.28-6l3.84-1.65a10.75,10.75,0,0,1,.35,9.39A10.61,10.61,0,0,1,380.35,287.52Z" transform="translate(-364.8 -191.82)"/><path class="cls-1" d="M380.74,260.28l2.27-4,18.28,10.35-2.28,4Z" transform="translate(-364.8 -191.82)"/><path class="cls-1" d="M386.77,249.92l5.17-6.85c3-4,7.22-4.62,10.64-2l.05,0c3.88,2.93,3.61,7.46.77,11.22l-2.11,2.8,5,3.8-2.79,3.69Zm13.44-.23c1.4-1.84,1.11-3.75-.33-4.83l0,0c-1.66-1.25-3.41-.77-4.8,1.08l-2.15,2.85,5.12,3.86Z" transform="translate(-364.8 -191.82)"/><path class="cls-1" d="M404.67,228.56l3.11-2.91,21,9.28-3.52,3.31-4.62-2.13-6.48,6.07,1.82,4.75-3.44,3.22Zm12,5.7L410,231.2l2.62,6.88Z" transform="translate(-364.8 -191.82)"/><path class="cls-1" d="M423.6,218.7l-5.32,3.54-2.36-3.54L430.4,209l2.36,3.55-5.32,3.54,9.29,13.93-3.84,2.57Z" transform="translate(-364.8 -191.82)"/><path class="cls-1" d="M436,206.09l14.49-6.4,1.66,3.76L441.84,208l1.72,3.89,9.06-4,1.66,3.76-9.06,4,1.78,4,10.43-4.6,1.66,3.76-14.63,6.45Z" transform="translate(-364.8 -191.82)"/><path class="cls-1" d="M536.49,235.41l2.72,1.52,1.69,11.75,4.59-8.26,2.92,1.62L541,255.46l-2.51-1.4-1.76-12.14-4.74,8.53L529,248.83Z" transform="translate(-364.8 -191.82)"/><path class="cls-1" d="M547.91,250.91l0,0a8.15,8.15,0,0,1,12.25,10.75l0,0a8.15,8.15,0,0,1-12.25-10.75Zm9.58,8.45,0,0a4.66,4.66,0,0,0-.3-6.69,4.58,4.58,0,0,0-6.61.54l0,0a4.66,4.66,0,0,0,.3,6.69A4.59,4.59,0,0,0,557.49,259.36Z" transform="translate(-364.8 -191.82)"/><path class="cls-1" d="M568.13,258.53l2,3L563.39,270,574,267l1.63,2.39-6.67,8.73,10.38-3.24,2,2.91-15.72,4.41-1.65-2.43,6.33-8.53L560,274l-1.66-2.42Z" transform="translate(-364.8 -191.82)"/><path class="cls-1" d="M571.86,287l1.42,3.26-3.21,1.4-1.42-3.25Zm10.38-4.72.4-.17,1.56,3.57-.4.18-9.29,2.93-.74-1.69Z" transform="translate(-364.8 -191.82)"/><path class="cls-1" d="M591.13,312.31l.1,3.11L582,322.89l9.44-.29.1,3.33-15.33.47-.09-2.87,9.52-7.72-9.74.3-.11-3.33Z" transform="translate(-364.8 -191.82)"/><path class="cls-1" d="M583.69,330h0a8,8,0,0,1,6.3,9.49,7.86,7.86,0,0,1-9.25,6.55h0a8.16,8.16,0,0,1,2.94-16Zm-2.34,12.56h0a4.67,4.67,0,0,0,5.6-3.68,4.59,4.59,0,0,0-3.86-5.4h0a4.66,4.66,0,0,0-5.59,3.68A4.58,4.58,0,0,0,581.35,342.59Z" transform="translate(-364.8 -191.82)"/><path class="cls-1" d="M587.5,351.31,586,354.6l-10.77-1.45,8,7.48-1.21,2.63L571.14,362l8.11,7.22-1.47,3.21-11.85-11.21,1.23-2.67,10.56,1-7.67-7.33,1.23-2.67Z" transform="translate(-364.8 -191.82)"/><path class="cls-1" d="M565,369.15,562.94,372l-2.85-2,2.06-2.89Zm9.38,6.48.36.25-2.27,3.18-.36-.25-7.29-6.47,1.07-1.5Z" transform="translate(-364.8 -191.82)"/><path class="cls-1" d="M553.17,398.67l-2.63,1.67-11.14-4.09,5.09,8L541.68,406l-8.26-12.93,2.42-1.54,11.51,4.22-5.25-8.22,2.81-1.79Z" transform="translate(-364.8 -191.82)"/><path class="cls-1" d="M534.12,401.36v0a7.93,7.93,0,0,1-4.91,10.28,7.85,7.85,0,0,1-10.36-4.57l0,0a8.16,8.16,0,0,1,15.28-5.71Zm-12,4.44,0,0a4.66,4.66,0,0,0,6,2.91,4.6,4.6,0,0,0,2.66-6.08l0,0a4.66,4.66,0,0,0-6-2.91A4.59,4.59,0,0,0,522.13,405.8Z" transform="translate(-364.8 -191.82)"/><path class="cls-1" d="M517.85,415.57l-3.6.39L510,406l-2.29,10.75-2.88.31-4.55-10-2,10.68-3.51.38,3.53-15.93,2.92-.32,4.53,9.61,2.36-10.36,2.92-.32Z" transform="translate(-364.8 -191.82)"/><path class="cls-1" d="M490.22,416.79l0,.44-3.89-.32,0-.44,1.81-9.57,1.84.15Zm.76-11.37-3.54-.29.29-3.5,3.54.29Z" transform="translate(-364.8 -191.82)"/><path class="cls-1" d="M459.58,410.38,456.79,409l-2.22-11.66-4.21,8.45-3-1.48,6.84-13.73,2.57,1.28,2.3,12,4.35-8.73,3,1.49Z" transform="translate(-364.8 -191.82)"/><path class="cls-1" d="M447.47,395.43l0,0a8.16,8.16,0,0,1-12.74-10.18l0,0a8.16,8.16,0,0,1,12.74,10.18Zm-10-8,0,0a4.66,4.66,0,0,0,.6,6.67,4.59,4.59,0,0,0,6.58-.84l0,0a4.66,4.66,0,0,0-.6-6.67A4.59,4.59,0,0,0,437.51,387.43Z" transform="translate(-364.8 -191.82)"/><path class="cls-1" d="M426.9,388.73l-2.18-2.89,6.39-8.79-10.4,3.53L419,378.27l6.26-9L415,373l-2.12-2.82,15.49-5.1,1.77,2.34-5.94,8.81,10.1-3.27,1.77,2.34Z" transform="translate(-364.8 -191.82)"/><path class="cls-1" d="M411.72,365.65l-.39.19-1.72-3.5.39-.19,9.15-3.35.82,1.66Zm10.16-5.18-1.57-3.19,3.15-1.54,1.57,3.18Z" transform="translate(-364.8 -191.82)"/><path class="cls-1" d="M401.48,336.08l-.24-3.1,8.86-7.9-9.42.73-.25-3.32,15.3-1.18.22,2.86-9.16,8.16,9.73-.75.25,3.32Z" transform="translate(-364.8 -191.82)"/><path class="cls-1" d="M408.09,318h0a8.15,8.15,0,0,1,2.21-16.15h0A8.16,8.16,0,0,1,408.09,318Zm1.77-12.66h-.05a4.65,4.65,0,0,0-5.41,3.93,4.58,4.58,0,0,0,4.09,5.22h.05a4.66,4.66,0,0,0,5.41-3.94A4.59,4.59,0,0,0,409.86,305.36Z" transform="translate(-364.8 -191.82)"/><path class="cls-1" d="M403.3,297l1.36-3.35,10.83,1-8.38-7.11,1.09-2.68,11,.74-8.43-6.85,1.33-3.27,12.35,10.66-1.11,2.72-10.6-.56,8,7-1.11,2.72Z" transform="translate(-364.8 -191.82)"/><path class="cls-1" d="M415.3,272.08l-.37-.24,2.11-3.28.37.24,7.58,6.12-1,1.55Zm9.66,6,1.93-3,2.95,1.91-1.93,3Z" transform="translate(-364.8 -191.82)"/><path class="cls-1" d="M435.47,248.06l2.54-1.8,11.32,3.59-5.44-7.73,2.72-1.91,8.83,12.54-2.34,1.65-11.69-3.69,5.61,8-2.72,1.92Z" transform="translate(-364.8 -191.82)"/><path class="cls-1" d="M454.36,244.5l0,0a8.16,8.16,0,0,1,15-6.39v0a8.16,8.16,0,0,1-15,6.39Zm11.77-5,0,0a4.65,4.65,0,0,0-6.15-2.63,4.58,4.58,0,0,0-2.38,6.2v0a4.67,4.67,0,0,0,6.16,2.63A4.58,4.58,0,0,0,466.13,239.52Z" transform="translate(-364.8 -191.82)"/><path class="cls-1" d="M470,229.58l3.58-.56,4.73,9.78,1.8-10.84,2.86-.44,5,9.77,1.54-10.75L493,226l-2.8,16.07-2.91.45-5-9.38-1.88,10.44-2.9.46Z" transform="translate(-364.8 -191.82)"/><path class="cls-1" d="M497.25,238.48l3.55.13-.13,3.51-3.55-.13Zm.23-11.39,0-.44,3.9.14,0,.44L500,236.87l-1.83-.06Z" transform="translate(-364.8 -191.82)"/></svg>