<?xml version="1.0" encoding="utf-8"?>
<!-- Generator: Adobe Illustrator 24.2.1, SVG Export Plug-In . SVG Version: 6.00 Build 0)  -->
<svg version="1.1" id="Ebene_1" xmlns="http://www.w3.org/2000/svg" xmlns:xlink="http://www.w3.org/1999/xlink" x="0px" y="0px"
	 viewBox="0 0 841.9 595.3" style="enable-background:new 0 0 841.9 595.3;" xml:space="preserve">
<style type="text/css">
	.st0{fill:#E94850;}
</style>
<g>
	<path class="st0" d="M458.1,229.2l0.5-1.3c1.2,0.8,2.4,1,3.6,0.5c1.7-0.7,2.1-2,1.3-4l-3.4-8.2l-5,2l-0.5-1.2l6.4-2.6l3.9,9.4
		c1.2,2.9,0.4,4.8-2.2,5.9C461.1,230.2,459.5,230.1,458.1,229.2z"/>
	<path class="st0" d="M478.1,219.1l-8.9,2.4c0.8,2.2,2.9,3.2,5.2,2.6c1.3-0.4,2.3-1.1,2.9-2.3l1.1,0.7c-0.6,1.4-2,2.4-3.6,2.9
		c-3.3,0.9-6.2-0.7-7.1-3.9c-0.9-3.2,0.7-6,3.7-6.8c3-0.8,5.8,0.8,6.6,4C478.1,218.8,478.1,219,478.1,219.1z M469,220.5l7.5-2
		c-0.7-2-2.7-3.1-4.7-2.5C469.7,216.5,468.6,218.3,469,220.5z"/>
	<path class="st0" d="M487.8,222.1c-0.5,0.6-1.3,1-2.2,1.1c-2.1,0.3-3.4-0.7-3.7-2.7l-1-6.6l-1.9,0.3l-0.2-1.2l1.9-0.3l-0.4-2.4
		l1.5-0.2l0.4,2.4l3.3-0.5l0.2,1.2l-3.3,0.5l1,6.5c0.2,1.3,1,1.9,2.2,1.7c0.6-0.1,1.2-0.4,1.5-0.8L487.8,222.1z"/>
	<path class="st0" d="M497.8,221l0.1,1.2l-9,0.4l0-1l6.6-9l-6.8,0.3l-0.1-1.3l8.7-0.4l0,1l-6.6,9.1L497.8,221z"/>
	<path class="st0" d="M506.3,222.1c-0.6,0.5-1.5,0.7-2.4,0.6c-2.1-0.1-3.1-1.4-3-3.4l0.4-6.6l-2-0.1l0.1-1.3l2,0.1l0.2-2.4l1.5,0.1
		l-0.2,2.4l3.3,0.2l-0.1,1.3l-3.3-0.2l-0.4,6.6c-0.1,1.3,0.5,2,1.8,2.1c0.6,0,1.2-0.1,1.7-0.5L506.3,222.1z"/>
	<path class="st0" d="M524.3,221.3l-8.9-2.2c-0.4,2.3,0.9,4.2,3.3,4.8c1.3,0.3,2.6,0.1,3.6-0.6l0.6,1.1c-1.2,0.9-2.9,1.1-4.6,0.7
		c-3.3-0.8-5-3.7-4.2-6.8c0.8-3.2,3.6-4.9,6.6-4.1c3,0.8,4.6,3.5,3.8,6.7C524.4,221,524.3,221.2,524.3,221.3z M515.6,218l7.6,1.9
		c0.3-2.1-0.8-4-2.9-4.5C518.2,214.9,516.3,216,515.6,218z"/>
	<path class="st0" d="M529.3,216.9l1.4,0.5l-3.7,10.4l-1.4-0.5L529.3,216.9z M530.1,213.5c0.2-0.5,0.8-0.8,1.4-0.6
		c0.6,0.2,0.9,0.8,0.7,1.3c-0.2,0.6-0.8,0.9-1.4,0.7C530.2,214.7,529.9,214.1,530.1,213.5z"/>
	<path class="st0" d="M542.4,227.7l-2.8,5.7l-1.3-0.7l2.7-5.6c1-2.1,0.5-3.7-1.4-4.6c-2.1-1-4.1-0.4-5.2,1.9l-2.5,5.2l-1.3-0.7
		l4.8-9.9l1.3,0.6l-0.9,1.8c1.3-0.9,3-0.9,4.7-0.1C542.8,222.7,543.8,224.9,542.4,227.7z"/>
	<path class="st0" d="M553.4,229.1l-0.8,1.2c-0.1-0.1-0.2-0.2-0.3-0.2c-1.9-1.3-3.9-0.8-5.3,1.4l-3.1,4.7l-1.2-0.8l6-9.2l1.2,0.8
		l-1.2,1.8C550.1,227.9,551.7,228,553.4,229.1z"/>
	<path class="st0" d="M559.7,241.9l-7.1-5.9c-1.3,1.9-1,4.2,0.9,5.7c1,0.9,2.3,1.2,3.5,1l0,1.3c-1.5,0.3-3.1-0.2-4.4-1.3
		c-2.6-2.2-2.9-5.5-0.9-8c2.1-2.5,5.3-2.8,7.7-0.9c2.4,2,2.7,5.2,0.5,7.7C559.9,241.7,559.8,241.8,559.7,241.9z M553.3,235.2l6,5
		c1.2-1.8,1-3.9-0.7-5.3C557,233.5,554.8,233.6,553.3,235.2z"/>
	<path class="st0" d="M566.1,240.1l1,1.1l-7.9,7.7l-1-1.1L566.1,240.1z M568.4,237.4c0.4-0.4,1.1-0.4,1.5,0c0.4,0.4,0.4,1.1,0,1.5
		c-0.4,0.4-1.1,0.4-1.5,0C568,238.5,568,237.8,568.4,237.4z"/>
	<path class="st0" d="M565.5,247.3c2.6-2.1,5.8-1.7,7.9,0.9c1.2,1.4,1.6,3.1,1,4.7l-1.3-0.4c0.4-1.3,0.1-2.5-0.7-3.5
		c-1.5-1.9-4-2.2-6-0.5c-2,1.6-2.2,4.1-0.7,5.9c0.8,1,1.9,1.6,3.3,1.5l0.1,1.3c-1.7,0.2-3.2-0.5-4.4-2
		C562.7,252.6,563,249.3,565.5,247.3z"/>
	<path class="st0" d="M579.5,265.8L574,269l-0.8-1.3l5.4-3.2c2-1.2,2.4-2.8,1.3-4.6c-1.2-2-3.2-2.6-5.4-1.3l-5,3l-0.8-1.3l13.4-7.9
		l0.8,1.3l-5.5,3.3c1.5,0,2.9,0.9,3.8,2.5C582.6,261.8,582.2,264.2,579.5,265.8z"/>
	<path class="st0" d="M583.8,279.2l-3.5-8.5c-2.1,1-2.8,3.2-1.9,5.5c0.5,1.2,1.4,2.2,2.6,2.6l-0.6,1.1c-1.5-0.5-2.6-1.6-3.3-3.3
		c-1.3-3.2,0-6.2,3-7.5c3-1.2,6,0,7.2,2.9c1.2,2.9-0.1,5.8-3.2,7.1C584.1,279.1,584,279.2,583.8,279.2z M581.4,270.3l3,7.2
		c1.9-1,2.7-3,1.9-5C585.4,270.5,583.4,269.6,581.4,270.3z"/>
	<path class="st0" d="M588.5,291.9l-6.2,1.5L582,292l6.1-1.5c2.3-0.6,3.1-2,2.6-4.1c-0.6-2.3-2.3-3.4-4.8-2.8l-5.6,1.4l-0.4-1.4
		l10.7-2.6l0.3,1.4l-2,0.5c1.5,0.5,2.6,1.7,3.1,3.6C592.7,289,591.6,291.1,588.5,291.9z"/>
	<path class="st0" d="M583.7,296.4c0.6-0.1,1.1,0.3,1.2,1c0.1,0.6-0.3,1.1-0.9,1.2c-0.6,0.1-1.1-0.3-1.2-0.9
		C582.7,297.1,583.1,296.5,583.7,296.4z M597.3,294.9l0.2,1.7l-10.2,1l-0.2-1.1L597.3,294.9z"/>
	<path class="st0" d="M585.5,316l0.9,1.1c-1.3,0.6-2,1.6-2.2,2.9c-0.2,1.8,0.7,2.8,2.8,3.1l8.8,1.2l0.7-5.3l1.3,0.2l-1,6.8
		l-10.1-1.4c-3.1-0.4-4.4-2.1-4-4.9C583.1,318.1,584,316.7,585.5,316z"/>
	<path class="st0" d="M584,338.4l2.4-8.9c-2.3-0.4-4.2,0.8-4.8,3.2c-0.4,1.3-0.2,2.6,0.5,3.6l-1.2,0.6c-0.9-1.3-1.1-2.9-0.6-4.6
		c0.9-3.3,3.8-5,6.9-4.1c3.1,0.9,4.8,3.7,4,6.7c-0.8,3-3.6,4.5-6.8,3.7C584.3,338.5,584.2,338.5,584,338.4z M587.5,329.8l-2.1,7.5
		c2.1,0.4,4-0.7,4.6-2.8C590.6,332.5,589.5,330.6,587.5,329.8z"/>
	<path class="st0" d="M576.5,345.1c-0.3-0.7-0.2-1.6,0.2-2.4c0.8-1.9,2.3-2.5,4.2-1.8l6.2,2.5l0.7-1.8l1.2,0.5l-0.7,1.8l2.2,0.9
		l-0.6,1.4l-2.2-0.9l-1.3,3.1l-1.2-0.5l1.3-3.1l-6.1-2.5c-1.2-0.5-2.1-0.1-2.6,1c-0.2,0.6-0.3,1.2-0.1,1.7L576.5,345.1z"/>
	<path class="st0" d="M572.4,354.4l-1.1-0.6l4.2-7.9l0.9,0.5l4.5,10.2l3.2-6l1.1,0.6l-4.1,7.7l-0.9-0.5l-4.5-10.3L572.4,354.4z"/>
	<path class="st0" d="M567.1,361.2c-0.1-0.8,0.2-1.6,0.7-2.4c1.2-1.7,2.8-2,4.5-0.9l5.5,3.7l1.1-1.6l1,0.7l-1.1,1.6l2,1.4L580,365
		l-2-1.4l-1.9,2.8l-1-0.7l1.9-2.8l-5.4-3.7c-1.1-0.7-2-0.6-2.7,0.4c-0.3,0.5-0.5,1.1-0.4,1.7L567.1,361.2z"/>
	<path class="st0" d="M558.7,377l6.4-6.6c-1.8-1.5-4.1-1.3-5.8,0.4c-0.9,1-1.4,2.1-1.3,3.4l-1.3-0.1c-0.2-1.5,0.5-3.1,1.7-4.3
		c2.4-2.5,5.7-2.5,8.1-0.2s2.4,5.5,0.2,7.8c-2.2,2.2-5.4,2.2-7.7-0.1C559,377.3,558.9,377.2,558.7,377z M566,371.2l-5.5,5.6
		c1.7,1.4,3.8,1.3,5.4-0.2C567.4,375,567.4,372.9,566,371.2z"/>
	<path class="st0" d="M560,383.6l-1.1,1l-7-8.5l1.1-1L560,383.6z M562.5,386.1c0.4,0.4,0.3,1.1-0.2,1.5c-0.5,0.4-1.1,0.3-1.5-0.1
		c-0.4-0.5-0.3-1.1,0.1-1.5C561.5,385.6,562.1,385.7,562.5,386.1z"/>
	<path class="st0" d="M544,389.5l-3.5-5.3l1.2-0.8l3.4,5.2c1.3,1.9,3,2.3,4.7,1.1c2-1.3,2.4-3.3,1-5.4l-3.2-4.8l1.2-0.8l6.1,9.2
		l-1.2,0.8l-1.1-1.7c0.1,1.6-0.7,3-2.3,4.1C548.2,392.4,545.8,392.1,544,389.5z"/>
	<path class="st0" d="M537.3,398.2l-0.6-1.3c0.1-0.1,0.2-0.1,0.3-0.1c2.1-1,2.7-3,1.5-5.3l-2.5-5l1.3-0.7l4.9,9.9l-1.3,0.6l-1-1.9
		C540,396,539.1,397.3,537.3,398.2z"/>
	<path class="st0" d="M523.1,397.1l8.6-3.2c-1-2.1-3.1-2.9-5.4-2.1c-1.3,0.5-2.2,1.3-2.7,2.5l-1.1-0.6c0.5-1.4,1.7-2.6,3.4-3.2
		c3.2-1.2,6.2,0.2,7.4,3.3c1.1,3.1-0.2,6-3.1,7.1c-2.9,1.1-5.8-0.3-6.9-3.4C523.2,397.5,523.1,397.3,523.1,397.1z M532.1,395
		l-7.3,2.7c0.9,2,2.9,2.8,4.9,2.1C531.7,399,532.7,397.1,532.1,395z"/>
	<path class="st0" d="M521.3,403.6l-1.4,0.4l-2.7-10.7l1.4-0.4L521.3,403.6z M522.5,406.9c0.1,0.5-0.2,1.1-0.8,1.3
		c-0.6,0.1-1.2-0.2-1.3-0.7c-0.1-0.6,0.2-1.2,0.8-1.3C521.8,406,522.4,406.3,522.5,406.9z"/>
	<path class="st0" d="M515.5,399.5c0.5,3.2-1.5,5.9-4.8,6.4c-1.8,0.3-3.5-0.2-4.6-1.5l1-0.9c0.9,1,2.1,1.3,3.4,1.1
		c2.4-0.4,3.9-2.3,3.5-4.9c-0.4-2.6-2.4-4-4.8-3.6c-1.3,0.2-2.3,0.9-2.9,2.1l-1.2-0.6c0.7-1.5,2.1-2.5,3.9-2.8
		C512.3,394.3,515,396.2,515.5,399.5z"/>
	<path class="st0" d="M492.4,402.1l0-6.4l1.5,0l0,6.2c0,2.3,1.2,3.5,3.3,3.5c2.4,0,3.8-1.5,3.8-4l0-5.8l1.5,0l0.1,15.5l-1.5,0l0-6.5
		c-0.8,1.3-2.2,2-4.1,2C494.3,406.8,492.5,405.3,492.4,402.1z"/>
	<path class="st0" d="M478.6,399.1l9.1,1.3c0.2-2.3-1.4-4.1-3.7-4.4c-1.3-0.2-2.6,0.1-3.5,0.9l-0.7-1.1c1.1-1,2.7-1.4,4.5-1.2
		c3.4,0.5,5.4,3.1,4.9,6.4c-0.5,3.2-3.1,5.2-6.1,4.8c-3.1-0.4-5-3-4.5-6.3C478.6,399.4,478.6,399.2,478.6,399.1z M487.6,401.5
		l-7.7-1.1c-0.1,2.2,1.2,3.9,3.4,4.2C485.3,404.9,487.1,403.6,487.6,401.5z"/>
	<path class="st0" d="M465.3,396.7l1.8-6.1l1.4,0.4l-1.8,6c-0.7,2.2,0.2,3.7,2.2,4.3c2.3,0.7,4.1-0.3,4.8-2.7l1.7-5.5l1.4,0.4
		l-3.2,10.5l-1.4-0.4l0.6-1.9c-1.1,1.1-2.8,1.4-4.6,0.8C465.8,401.7,464.4,399.7,465.3,396.7z"/>
	<path class="st0" d="M458.3,402.7l-1.6-0.7l4.3-9.3l1.1,0.4L458.3,402.7z M463.9,390.2c-0.2,0.6-0.9,0.8-1.4,0.5
		c-0.6-0.2-0.8-0.8-0.6-1.4c0.2-0.5,0.8-0.8,1.4-0.6C463.8,389,464.1,389.7,463.9,390.2z"/>
	<path class="st0" d="M446.1,381.8l-1.4,0.2c0.1-1.4-0.3-2.6-1.4-3.4c-1.4-1.1-2.8-0.9-4.1,0.8l-5.5,7l4.2,3.3l-0.8,1.1l-5.4-4.3
		l6.3-8c1.9-2.4,4-2.7,6.2-1C445.5,378.7,446.2,380.2,446.1,381.8z"/>
	<path class="st0" d="M427.5,369.2l6.4,6.6c1.5-1.7,1.4-4.1-0.3-5.8c-0.9-1-2.1-1.5-3.4-1.4l0.1-1.3c1.5-0.1,3,0.5,4.3,1.8
		c2.4,2.5,2.4,5.8,0,8.1c-2.3,2.3-5.6,2.3-7.8,0.1c-2.2-2.2-2.1-5.4,0.3-7.7C427.3,369.5,427.4,369.4,427.5,369.2z M433.2,376.6
		l-5.5-5.6c-1.4,1.6-1.4,3.8,0.1,5.4C429.3,377.9,431.5,378,433.2,376.6z"/>
	<path class="st0" d="M425.5,359.4c0.8,0.1,1.5,0.7,2,1.4c1.3,1.6,1,3.3-0.6,4.5l-5.3,4.1l1.2,1.6l-1,0.8l-1.2-1.6l-1.9,1.5
		l-0.9-1.2l1.9-1.5l-2-2.7l1-0.8l2,2.7l5.2-4c1-0.8,1.2-1.8,0.4-2.7c-0.4-0.5-0.9-0.8-1.4-1L425.5,359.4z"/>
	<path class="st0" d="M419.6,351.1l1.1-0.6l4.7,7.6l-0.8,0.5l-11.1-1.3l3.5,5.8l-1.1,0.7l-4.5-7.4l0.8-0.5l11.1,1.3L419.6,351.1z"/>
	<path class="st0" d="M416.5,343.2c0.7,0.3,1.3,1,1.7,1.8c0.9,1.9,0.3,3.4-1.5,4.3l-6,2.8l0.8,1.8l-1.1,0.5l-0.8-1.8l-2.2,1
		l-0.6-1.3l2.2-1l-1.4-3l1.1-0.5l1.4,3l5.9-2.8c1.2-0.6,1.5-1.5,1-2.6c-0.3-0.5-0.7-1-1.2-1.2L416.5,343.2z"/>
	<path class="st0" d="M407,327.8l2.4,8.9c2.2-0.8,3.2-2.9,2.6-5.2c-0.4-1.3-1.1-2.3-2.3-2.9l0.7-1.1c1.4,0.6,2.4,2,2.9,3.6
		c0.9,3.3-0.7,6.2-3.9,7c-3.2,0.9-6-0.7-6.8-3.7s0.8-5.8,4-6.6C406.7,327.9,406.9,327.9,407,327.8z M408.4,337l-2.1-7.5
		c-2,0.7-3.1,2.7-2.5,4.7C404.4,336.3,406.2,337.4,408.4,337z"/>
	<path class="st0" d="M397.3,326.6c-0.6,0.1-1.1-0.3-1.2-0.9c-0.1-0.6,0.3-1.1,0.8-1.2c0.6-0.1,1.1,0.3,1.3,0.9
		C398.3,325.9,397.9,326.5,397.3,326.6z M400.7,325.7l-0.2-1.5l10.9-1.8l0.2,1.5L400.7,325.7z"/>
	<path class="st0" d="M403.7,308.9l6.4-0.3l0.1,1.5l-6.2,0.3c-2.3,0.1-3.4,1.4-3.3,3.5c0.1,2.4,1.7,3.8,4.2,3.6l5.8-0.3l0.1,1.5
		l-11,0.6l-0.1-1.4l2-0.1c-1.4-0.7-2.2-2.2-2.3-4.1C399.1,311,400.6,309.1,403.7,308.9z"/>
	<path class="st0" d="M399.7,298.6l1.4,0.1c0,0.1,0,0.3,0,0.4c-0.2,2.3,1.2,3.8,3.8,4l5.6,0.4l-0.1,1.5l-11-0.8l0.1-1.4l2.2,0.2
		C400.2,302.1,399.5,300.7,399.7,298.6z"/>
	<path class="st0" d="M407.8,286.9l-1.7,9.1c2.3,0.3,4.1-1.2,4.6-3.6c0.2-1.3,0-2.6-0.8-3.6l1.1-0.6c1,1.2,1.3,2.8,1,4.5
		c-0.6,3.4-3.4,5.2-6.6,4.6c-3.2-0.6-5.1-3.3-4.5-6.3c0.6-3,3.2-4.8,6.5-4.2C407.5,286.8,407.6,286.9,407.8,286.9z M405,295.8
		l1.4-7.7c-2.2-0.2-3.9,1.1-4.3,3.2C401.7,293.4,402.9,295.2,405,295.8z"/>
	<path class="st0" d="M399.6,281.5c-0.5-0.2-0.9-0.8-0.7-1.3c0.2-0.6,0.8-0.9,1.3-0.8c0.6,0.2,0.9,0.8,0.7,1.4
		C400.8,281.3,400.2,281.7,399.6,281.5z M403,282.2l0.4-1.4l10.6,3.1l-0.4,1.4L403,282.2z"/>
	<path class="st0" d="M409.6,279.2c-3-1.2-4.3-4.3-3.1-7.4c0.7-1.7,2-2.9,3.6-3.2l0.3,1.3c-1.3,0.3-2.2,1.2-2.7,2.4
		c-0.9,2.2,0,4.5,2.4,5.5c2.4,1,4.6,0,5.5-2.3c0.5-1.2,0.5-2.5-0.3-3.6l1.1-0.7c1,1.3,1.1,3.1,0.4,4.8
		C415.7,279.1,412.7,280.4,409.6,279.2z"/>
	<path class="st0" d="M419,258l5.5,3.2l-0.7,1.3l-5.4-3.1c-2-1.2-3.7-0.7-4.7,1.1c-1.2,2-0.7,4.1,1.5,5.3l5,2.9l-0.7,1.3l-13.4-7.8
		l0.7-1.3l5.6,3.2c-0.7-1.3-0.6-3,0.3-4.6C414,257.2,416.3,256.4,419,258z"/>
	<path class="st0" d="M428.6,247.7l-5.7,7.2c1.9,1.3,4.2,0.9,5.7-1c0.8-1,1.2-2.3,1-3.5l1.3-0.1c0.3,1.5-0.2,3.1-1.2,4.4
		c-2.1,2.7-5.4,3.1-8,1c-2.6-2-2.9-5.3-1-7.7s5.1-2.8,7.7-0.7C428.3,247.4,428.5,247.6,428.6,247.7z M422,254.2l4.9-6.1
		c-1.8-1.2-4-0.9-5.3,0.8C420.2,250.5,420.4,252.7,422,254.2z"/>
	<path class="st0" d="M437.4,237.4l4.3,4.7l-1.1,1l-4.2-4.6c-1.6-1.7-3.3-1.8-4.8-0.3c-1.7,1.6-1.8,3.7-0.1,5.5l3.9,4.2l-1.1,1
		l-7.5-8.1l1-1l1.4,1.5c-0.3-1.5,0.2-3.1,1.6-4.4C432.8,235.2,435.2,235.1,437.4,237.4z"/>
	<path class="st0" d="M435.7,228.3l1.4-1l5.9,8.4l-0.9,0.7L435.7,228.3z M443.7,239.4c-0.4-0.5-0.3-1.1,0.3-1.5
		c0.5-0.4,1.1-0.3,1.5,0.2c0.3,0.5,0.3,1.1-0.2,1.5C444.7,240,444.1,239.9,443.7,239.4z"/>
</g>
<g>
	<path class="st0" d="M501.1,187.2c0.2,4.5-3.3,8-8,8.2c-4.7,0.2-8.4-3.1-8.6-7.6c-0.2-4.5,3.3-7.9,8-8.1
		C497.3,179.6,501,182.8,501.1,187.2z M488.5,187.7c0.1,2.6,2.2,4.5,4.5,4.4c2.4-0.1,4.2-2.2,4.1-4.8c-0.1-2.6-2.1-4.5-4.4-4.4
		C490.3,183.1,488.4,185.1,488.5,187.7z"/>
	<path class="st0" d="M511.2,180.5c3.9,0.4,6,2.5,5.6,6c-0.4,3.6-2.8,5.4-6.7,5l-2.8-0.3l-0.4,4.3l-3.9-0.4l1.5-15.3L511.2,180.5z
		 M507.6,188.2l2.6,0.3c1.7,0.2,2.8-0.6,2.9-2.2c0.2-1.6-0.7-2.5-2.4-2.7l-2.6-0.3L507.6,188.2z"/>
	<path class="st0" d="M524,185.7l-0.7,3l7.2,1.7l-0.7,3l-7.2-1.7l-0.7,3l8.2,1.9l-0.7,3l-12-2.8l3.5-15l11.7,2.7l-0.7,3L524,185.7z"
		/>
	<path class="st0" d="M541.3,204l-3.2-11.4l-3.4,8.9l-3.4-1.3l5.5-14.4l3.2,1.2l3.2,11.4l3.4-8.9l3.4,1.3l-5.5,14.4L541.3,204z"/>
	<path class="st0" d="M569.5,204.6l-3.3,1.1c-0.2-1.6-1.1-3-2.3-3.7c-2.1-1.3-4.7-0.6-6,1.6c-1.3,2.2-0.8,4.8,1.3,6.1
		c1.1,0.7,2.8,0.9,4.2,0.5l0.7,3.3c-2.3,0.6-5,0.3-6.9-0.9c-4-2.4-5.1-7.1-2.8-11c2.3-3.8,7.1-4.8,11.1-2.3
		C567.5,200.4,569,202.5,569.5,204.6z"/>
	<path class="st0" d="M568.1,216.4l-2.7,1.5l-3.1-2.5l14.9-7.7l3.1,2.5l-4.7,16l-3.2-2.6l0.9-2.9L568.1,216.4z M576.2,211.8l-5.3,3
		l3.4,2.8L576.2,211.8z"/>
	<path class="st0" d="M585.8,232.3l-2.4,2.3l-7.2-7.6l11.2-10.6l2.7,2.8l-8.8,8.4L585.8,232.3z"/>
	<path class="st0" d="M593.3,242l-2.6,2l-6.4-8.3l12.2-9.4l2.4,3.1l-9.6,7.4L593.3,242z"/>
	<path class="st0" d="M613.8,274.4c-4.2,1.6-8.6-0.6-10.3-5.1c-1.6-4.5,0.3-9,4.5-10.5c4.2-1.6,8.6,0.6,10.2,5.1
		C619.9,268.3,618,272.8,613.8,274.4z M609.4,262.5c-2.4,0.9-3.6,3.5-2.8,5.7c0.8,2.2,3.4,3.3,5.8,2.4c2.4-0.9,3.6-3.4,2.8-5.6
		S611.9,261.6,609.4,262.5z"/>
	<path class="st0" d="M623.3,281.9c0.8,3.8-0.6,6.5-3.9,7.2c-3.5,0.8-6-1-6.9-4.9l-0.6-2.7l-4.2,0.9l-0.8-3.8l15-3.3L623.3,281.9z
		 M614.9,280.9l0.6,2.5c0.4,1.7,1.4,2.5,3,2.1c1.6-0.3,2.2-1.5,1.8-3.2l-0.6-2.5L614.9,280.9z"/>
	<path class="st0" d="M622.4,295.6l-3,0.3l0.6,7.3l-3.1,0.3l-0.6-7.3l-3.1,0.3l0.7,8.3l-3.1,0.3l-1.1-12.2l15.3-1.3l1,12l-3.1,0.3
		L622.4,295.6z"/>
	<path class="st0" d="M610.4,317.8l9.8-6.6l-9.5-0.5l0.2-3.7l15.4,0.7l-0.2,3.4l-9.8,6.6l9.5,0.5l-0.2,3.6l-15.4-0.7L610.4,317.8z"
		/>
	<path class="st0" d="M618.6,344.7l-2.1-2.8c1.4-0.7,2.5-2,2.8-3.3c0.6-2.4-0.9-4.6-3.4-5.2c-2.5-0.6-4.8,0.8-5.4,3.1
		c-0.3,1.3,0,2.9,0.9,4.2l-2.9,1.7c-1.3-2-1.8-4.6-1.3-6.8c1.1-4.5,5.2-7.1,9.6-6.1c4.3,1,6.8,5.2,5.7,9.8
		C622,341.5,620.5,343.6,618.6,344.7z"/>
	<path class="st0" d="M607,347.1l-2.2-2.1l1.4-3.8l12,11.7l-1.4,3.8l-16.7,0.5l1.5-3.9l3,0L607,347.1z M613.9,353.4l-4.5-4.1
		l-1.6,4.1L613.9,353.4z"/>
	<path class="st0" d="M597.4,368.9l-2.9-1.6l4.9-9.2l13.6,7.3l-1.9,3.5l-10.7-5.7L597.4,368.9z"/>
	<path class="st0" d="M590.5,379l-2.7-1.8l5.9-8.6l12.7,8.7l-2.2,3.2l-10-6.8L590.5,379z"/>
	<path class="st0" d="M566.1,408.6c-2.8-3.5-2.1-8.4,1.6-11.4c3.7-3,8.6-2.5,11.4,1c2.8,3.5,2.1,8.3-1.7,11.3
		C573.7,412.5,568.9,412.1,566.1,408.6z M576,400.7c-1.6-2-4.4-2.4-6.3-0.9c-1.9,1.5-2.1,4.2-0.5,6.3c1.6,2,4.3,2.4,6.2,0.9
		S577.6,402.8,576,400.7z"/>
	<path class="st0" d="M561.9,420c-3.4,2-6.3,1.5-8.1-1.5c-1.8-3.1-0.9-6.1,2.5-8.1l2.4-1.4l-2.2-3.7l3.4-2l7.8,13.3L561.9,420z
		 M560.3,411.7l-2.2,1.3c-1.5,0.9-1.9,2.1-1.1,3.5c0.8,1.4,2.1,1.6,3.6,0.7l2.2-1.3L560.3,411.7z"/>
	<path class="st0" d="M548.6,423.4l-1.2-2.8l-6.8,2.9l-1.2-2.8l6.8-2.9l-1.2-2.9l-7.7,3.3l-1.2-2.8l11.3-4.8l6.1,14.2l-11.1,4.8
		l-1.2-2.8L548.6,423.4z"/>
	<path class="st0" d="M523.8,418.9l9.3,7.3l-2.5-9.1l3.5-1l4.1,14.9l-3.3,0.9l-9.4-7.3l2.5,9.2l-3.5,1l-4.1-14.9L523.8,418.9z"/>
	<path class="st0" d="M500.7,435.1l2-2.9c1.1,1.1,2.7,1.8,4,1.7c2.4-0.2,4.1-2.3,3.9-4.8c-0.2-2.6-2.2-4.4-4.7-4.2
		c-1.3,0.1-2.7,0.9-3.7,2.1l-2.5-2.2c1.5-1.8,3.8-3.2,6.1-3.3c4.6-0.4,8.4,2.7,8.7,7.2c0.4,4.4-2.9,8.1-7.5,8.5
		C504.9,437.3,502.4,436.5,500.7,435.1z"/>
	<path class="st0" d="M494.8,424.8l1.3-2.8l4,0.2l-7.4,15l-4-0.2l-5.7-15.7l4.2,0.2l1,2.9L494.8,424.8z M491,433.3l2.5-5.6l-4.4-0.2
		L491,433.3z"/>
	<path class="st0" d="M471.2,422.5l0.6-3.2L482,421l-2.7,15.2l-3.9-0.7l2.1-11.9L471.2,422.5z"/>
	<path class="st0" d="M459.4,419.1l0.9-3.2l10,2.9l-4.3,14.8l-3.8-1.1l3.4-11.7L459.4,419.1z"/>
	<path class="st0" d="M423.7,405.1c2.5-3.7,7.3-4.6,11.3-2c4,2.6,5.1,7.4,2.6,11.2c-2.5,3.7-7.3,4.6-11.2,1.9
		C422.4,413.6,421.2,408.8,423.7,405.1z M434.2,412.1c1.4-2.2,0.9-4.9-1.1-6.2c-2-1.3-4.7-0.7-6.1,1.5s-0.9,4.8,1,6.2
		C430.1,414.8,432.8,414.2,434.2,412.1z"/>
	<path class="st0" d="M411.6,404.7c-3-2.6-3.4-5.6-1.1-8.1c2.4-2.7,5.5-2.8,8.4-0.2l2.1,1.8l2.9-3.2l2.9,2.6l-10.2,11.5L411.6,404.7
		z M419,400.6l-1.9-1.7c-1.3-1.1-2.6-1.1-3.7,0.1c-1.1,1.2-0.9,2.5,0.4,3.6l1.9,1.7L419,400.6z"/>
	<path class="st0" d="M404.2,393.1l2.3-2l-4.9-5.5l2.3-2l4.9,5.5l2.3-2.1l-5.5-6.3l2.3-2l8.1,9.2l-11.6,10.2l-8-9l2.3-2L404.2,393.1
		z"/>
	<path class="st0" d="M400.7,368.1l-4,11.1l7.9-5.2l2,3.1l-12.8,8.5l-1.9-2.9l4-11.2l-7.9,5.3l-2-3l12.8-8.5L400.7,368.1z"/>
	<path class="st0" d="M378.2,351.3l3.4,1c-0.7,1.4-0.9,3.1-0.3,4.3c1,2.2,3.5,3.2,5.8,2.2c2.4-1,3.4-3.5,2.5-5.7
		c-0.5-1.2-1.7-2.3-3.2-2.9l1.3-3.1c2.2,0.9,4.2,2.7,5.1,4.7c1.8,4.3,0,8.8-4.1,10.5c-4.1,1.7-8.6-0.2-10.4-4.5
		C377.3,355.9,377.3,353.3,378.2,351.3z"/>
	<path class="st0" d="M386.1,342.5l3,0.3l1.1,3.9l-16.6-2.4l-1.1-3.9l13.2-10.3l1.1,4l-2.4,1.8L386.1,342.5z M376.8,341.5l6.1,0.7
		l-1.2-4.3L376.8,341.5z"/>
	<path class="st0" d="M381,319.2l3.2-0.5l1.5,10.3l-15.3,2.2l-0.5-3.9l12-1.7L381,319.2z"/>
	<path class="st0" d="M380.5,307l3.3-0.1l0.4,10.4l-15.4,0.5l-0.1-3.9l12.1-0.4L380.5,307z"/>
	<path class="st0" d="M382.6,268.7c4.3,1.2,6.7,5.5,5.4,10.1c-1.2,4.6-5.4,7.1-9.8,6c-4.3-1.2-6.6-5.5-5.4-10.1
		C374.1,270.1,378.3,267.5,382.6,268.7z M379.3,280.9c2.5,0.7,5-0.7,5.6-3c0.6-2.3-0.8-4.6-3.3-5.3s-4.9,0.6-5.5,2.9
		S376.8,280.2,379.3,280.9z"/>
	<path class="st0" d="M379.2,257.1c1.6-3.6,4.2-4.9,7.4-3.6c3.3,1.4,4.3,4.3,2.8,8l-1.1,2.6l4,1.7l-1.5,3.6l-14.2-6.1L379.2,257.1z
		 M385.5,262.8l1-2.4c0.7-1.6,0.3-2.8-1.2-3.5c-1.5-0.6-2.6,0-3.3,1.5l-1,2.4L385.5,262.8z"/>
	<path class="st0" d="M388,246.4l2.6,1.6l3.7-6.3l2.7,1.6l-3.7,6.3l2.7,1.6l4.3-7.2l2.7,1.6l-6.3,10.6l-13.3-7.8l6.1-10.4l2.7,1.6
		L388,246.4z"/>
	<path class="st0" d="M410.7,235.3l-11.8-0.3l7.4,5.9l-2.3,2.9l-12.1-9.6l2.1-2.7l11.9,0.3l-7.4-5.9l2.3-2.9l12.1,9.6L410.7,235.3z"
		/>
	<path class="st0" d="M419.6,208.7l0.1,3.5c-1.6-0.3-3.2,0.1-4.2,1c-1.8,1.6-1.9,4.3-0.3,6.2c1.7,1.9,4.4,2.2,6.2,0.6
		c1-0.9,1.6-2.4,1.7-3.9l3.3,0.3c-0.1,2.4-1.2,4.8-2.9,6.3c-3.5,3.1-8.3,2.8-11.3-0.6c-2.9-3.3-2.5-8.2,1.1-11.3
		C415,209.3,417.4,208.5,419.6,208.7z"/>
	<path class="st0" d="M430.4,213.4l0.6,3l-3.4,2.2l-2.9-16.5l3.4-2.2l13.9,9.3l-3.5,2.3l-2.5-1.8L430.4,213.4z M428.5,204.3l1.3,6
		l3.7-2.5L428.5,204.3z"/>
	<path class="st0" d="M450.9,201.3l1.5,2.9l-9.4,4.6l-6.8-13.8l3.5-1.7l5.4,10.9L450.9,201.3z"/>
	<path class="st0" d="M462.4,197.1l1.1,3.1l-9.8,3.6l-5.3-14.5l3.7-1.4l4.2,11.4L462.4,197.1z"/>
</g>
</svg>
